<svg xmlns="http://www.w3.org/2000/svg" width="36" height="34.944"><path d="M18.063 34.948C6.343 34.948 0 27.63 0 18.188 0 8.097 7.143 0 19.914 0 29.235 0 36 6.057 36 14.402c0 13.068-15.495 16.518-14.718 9.063a6.843 6.843 0 01-6.082 3.531c-3.774 0-6.12-2.763-6.12-7.211 0-6.666 4.381-12.3 9.569-12.3a4.9 4.9 0 014.916 3.332l.7-2.448h3.505c-.37 1.249-3.482 12.792-3.482 12.792-.972 4 2.025 4.069 4.683 1.945 4.993-3.87 5.251-13.99-1.5-18.211C20.243.558 3.782 3.242 3.782 17.934c0 8.417 5.925 14.071 14.744 14.071a20.151 20.151 0 0010.942-2.922l1.766 2.547a25.587 25.587 0 01-13.171 3.318zm-3.516-21.461a15.3 15.3 0 00-1.766 6.636c0 5.415 5.283 5.449 7.878.358a16.256 16.256 0 001.757-6.793c0-4.375-5.243-5.151-7.869-.2z" fill="#8dc741"/></svg>