<svg xmlns="http://www.w3.org/2000/svg" width="74.383" height="45.513"><path d="M29.404 20.937H15.22V.267h14.184v4.175h-9.95v3.879h8.677v4h-8.676v4.442h9.95zm20.728 0h-5.06l-4.412-7.048-4.442 7.048h-5.034l7.048-10.631L31.539.267h5.064l4.057 6.485L44.717.267h5.034l-6.663 10.039zm17.027-3.583c-2.281 2.695-3.791 3.849-7.4 3.849-6.13 0-9-5.034-9-10.6 0-5.6 2.813-10.6 8.973-10.6 3.257 0 5.241 1.126 7.285 3.583L64.02 6.515c-1.214-1.362-2.339-2.34-4.294-2.34-3.553 0-4.649 3.465-4.649 6.426s1.1 6.426 4.649 6.426c2.014 0 3.228-1.066 4.442-2.577zm6.957 3.583h-4.234V.267h4.234zM5.834 45.513H0v-20.67h5.834c8 0 9.861 2.517 9.861 10.335s-1.866 10.335-9.861 10.335zm5.034-15.192c-.622-1.007-1.836-1.3-4.086-1.3H4.239v12.317h2.547c2.28 0 3.494-.326 4.116-1.392.415-.711.563-1.688.563-4.738-.005-2.962-.153-4.146-.597-4.886zm22.564 15.192H19.247v-20.67h14.185v4.176h-9.95v3.879h8.677v4h-8.677v4.442h9.95zm14.301-8.795a6.609 6.609 0 01.829 1.1l4.916 7.7h-4.913l-4.146-6.93c-.622-1.065-.888-1.391-2.162-1.391H41.22v8.321h-4.234v-20.67h7.579c4.028 0 7.166 1.925 7.166 6.279a5.833 5.833 0 01-3.998 5.591zm-3.139-7.789h-3.376v4.531h3.376c1.629 0 2.9-.415 2.9-2.31.002-1.865-1.329-2.222-2.9-2.222zm29.79 16.584H70.12V35.8l-3.968 9.713h-2.638L59.575 35.8v9.713h-4.261v-20.67h4.027l5.478 13.8 5.6-13.8h3.968z" fill="#da0068"/></svg>