<svg xmlns="http://www.w3.org/2000/svg" width="88.356" height="60.688"><path fill="#ff5000" d="M0 0h88.356v60.688H0z"/><text transform="translate(79.315 36.46)" fill="#fff" font-size="4" font-family="SegoeUI, Segoe UI"><tspan x="0" y="0">®</tspan></text><path d="M17.241 18.001h6.684v6.2q-.775.42-1.55.759a14.072 14.072 0 01-1.647.6 12.48 12.48 0 01-1.905.4 17.964 17.964 0 01-2.341.137 12.119 12.119 0 01-3.834-.581 9.149 9.149 0 01-3.019-1.639 7.452 7.452 0 01-2.7-5.869 8.508 8.508 0 01.71-3.511 7.971 7.971 0 011.986-2.729A9.145 9.145 0 0112.644 10a11.193 11.193 0 013.827-.63 8.352 8.352 0 012.357.331 10.113 10.113 0 012.1.872 9 9 0 011.736 1.251 8.4 8.4 0 011.267 1.453l-1.63 1.485a14.534 14.534 0 00-1.074-1.34 7.913 7.913 0 00-1.187-1.074 5.38 5.38 0 00-1.34-.719 4.457 4.457 0 00-1.534-.258 5.888 5.888 0 00-2.324.452 5.4 5.4 0 00-1.857 1.3 5.969 5.969 0 00-1.235 2.083 8.251 8.251 0 00-.444 2.8 7.477 7.477 0 00.476 2.769 5.853 5.853 0 001.292 2.019 5.4 5.4 0 001.913 1.235 6.538 6.538 0 002.357.42 5.035 5.035 0 001.421-.194 3.858 3.858 0 001.211-.6v-4.282h-2.729zm21.842-8.246v1.373H31.01v5.312h6.7v1.373h-6.7v6.393h8.073v1.647H27.054V9.755zm6.389 7.406h.856a4.265 4.265 0 001.34-.2 3.178 3.178 0 001.065-.581 2.7 2.7 0 00.711-.92 2.841 2.841 0 00.258-1.235 3.39 3.39 0 00-.193-1.162 2.733 2.733 0 00-.549-.92 2.567 2.567 0 00-.832-.605 2.51 2.51 0 00-1.057-.218h-1.6zM41.517 9.75h6.054a10.116 10.116 0 012.737.331 5.993 5.993 0 011.954.912 3.743 3.743 0 011.17 1.388 4.014 4.014 0 01.388 1.76 3.2 3.2 0 01-.267 1.291 3.933 3.933 0 01-.751 1.13 5.254 5.254 0 01-1.162.92 7.029 7.029 0 01-1.5.662l5.732 7.7h-4.295l-5.409-7.281h-.694v7.281h-3.955zm15.464 0h3.939v16.097h-3.939zm10.814 10.205h4.844l-2.39-5.2zm4.02-10.543l7.539 16.436h-4.036L73.3 21.457h-6.252l-2.115 4.391h-2.68L70.1 9.412zM13.14 52.228a8.508 8.508 0 01-2.535-.339 5.808 5.808 0 01-1.848-.937 4.587 4.587 0 01-1.219-1.421 5.609 5.609 0 01-.614-1.809h2.745a4.705 4.705 0 00.42 1.13 3.372 3.372 0 00.694.9 3.038 3.038 0 00.993.606 3.741 3.741 0 001.332.218 4.748 4.748 0 00.993-.105 2.72 2.72 0 00.88-.347 1.955 1.955 0 00.63-.63 1.765 1.765 0 00.242-.952 2.233 2.233 0 00-.371-1.267 4.225 4.225 0 00-.977-1.017 9.37 9.37 0 00-1.373-.856q-.766-.4-1.574-.791t-1.574-.832a7.94 7.94 0 01-1.373-.977 4.567 4.567 0 01-.977-1.219 3.207 3.207 0 01-.371-1.566 3.85 3.85 0 01.42-1.776 4.078 4.078 0 011.219-1.421 6.122 6.122 0 011.945-.937 9.236 9.236 0 012.616-.339 6.719 6.719 0 012.2.339 6.018 6.018 0 011.736.92 5.6 5.6 0 011.268 1.372 6.584 6.584 0 01.791 1.7h-2.487a7.778 7.778 0 00-.492-1.1 3.526 3.526 0 00-.7-.9 3.225 3.225 0 00-1.009-.621 3.82 3.82 0 00-1.413-.234 3.64 3.64 0 00-1.3.2 2.461 2.461 0 00-.848.517 1.934 1.934 0 00-.468.694 2.1 2.1 0 00-.145.751 1.95 1.95 0 00.379 1.171 4.3 4.3 0 001 .969 11.45 11.45 0 001.421.856q.8.412 1.623.832t1.623.872a8.367 8.367 0 011.421 1 4.815 4.815 0 011 1.211 2.97 2.97 0 01.379 1.5 4.212 4.212 0 01-.4 1.833 4.069 4.069 0 01-1.2 1.469 6.015 6.015 0 01-1.97.977 9.413 9.413 0 01-2.72.355M24.534 35.89l4.085 10.4 4.1-10.575 4.133 10.527 3.988-10.349h2.632l-6.329 16.339h-1.792l-3.294-8.4-3.245 8.4H27.02l-6.458-16.339zm20.888-.001h3.94v16.097h-3.94zm13.396 16.339a8.5 8.5 0 01-2.535-.339 5.805 5.805 0 01-1.849-.937 4.592 4.592 0 01-1.219-1.421 5.6 5.6 0 01-.614-1.809h2.745a4.684 4.684 0 00.42 1.13 3.364 3.364 0 00.694.9 3.036 3.036 0 00.993.606 3.744 3.744 0 001.333.218 4.746 4.746 0 00.992-.105 2.716 2.716 0 00.88-.347 1.957 1.957 0 00.63-.63 1.769 1.769 0 00.242-.952 2.233 2.233 0 00-.371-1.267 4.231 4.231 0 00-.977-1.017 9.4 9.4 0 00-1.373-.856q-.767-.4-1.574-.791t-1.574-.832a7.94 7.94 0 01-1.372-.977 4.567 4.567 0 01-.977-1.219 3.2 3.2 0 01-.372-1.566 3.844 3.844 0 01.42-1.776 4.071 4.071 0 011.219-1.421 6.125 6.125 0 011.946-.937 9.232 9.232 0 012.615-.339 6.719 6.719 0 012.2.339 6.021 6.021 0 011.736.92 5.59 5.59 0 011.267 1.372 6.568 6.568 0 01.792 1.7h-2.487a7.837 7.837 0 00-.492-1.1 3.518 3.518 0 00-.7-.9 3.217 3.217 0 00-1.009-.621 3.822 3.822 0 00-1.413-.234 3.64 3.64 0 00-1.3.2 2.456 2.456 0 00-.848.517 1.921 1.921 0 00-.468.694 2.086 2.086 0 00-.145.751 1.947 1.947 0 00.38 1.171 4.288 4.288 0 001 .969 11.446 11.446 0 001.421.856q.8.412 1.623.832t1.623.872a8.366 8.366 0 011.421 1 4.813 4.813 0 011 1.211 2.965 2.965 0 01.38 1.5 4.212 4.212 0 01-.4 1.833 4.064 4.064 0 01-1.2 1.469 6.013 6.013 0 01-1.969.977 9.417 9.417 0 01-2.721.355m14.918.001a8.511 8.511 0 01-2.535-.339 5.813 5.813 0 01-1.848-.937 4.578 4.578 0 01-1.219-1.421 5.575 5.575 0 01-.613-1.809h2.744a4.685 4.685 0 00.42 1.13 3.37 3.37 0 00.694.9 3.036 3.036 0 00.993.606 3.744 3.744 0 001.332.218 4.748 4.748 0 00.993-.105 2.723 2.723 0 00.88-.347 1.949 1.949 0 00.629-.63 1.76 1.76 0 00.242-.952 2.233 2.233 0 00-.371-1.267 4.232 4.232 0 00-.977-1.017 9.4 9.4 0 00-1.372-.856q-.767-.4-1.574-.791t-1.574-.832a7.944 7.944 0 01-1.373-.977 4.576 4.576 0 01-.977-1.219 3.206 3.206 0 01-.371-1.566 3.85 3.85 0 01.42-1.776 4.081 4.081 0 011.219-1.421 6.126 6.126 0 011.946-.937 9.232 9.232 0 012.615-.339 6.722 6.722 0 012.2.339 6.014 6.014 0 011.735.92 5.591 5.591 0 011.268 1.372 6.568 6.568 0 01.791 1.7H77.58a7.834 7.834 0 00-.492-1.1 3.549 3.549 0 00-.7-.9 3.222 3.222 0 00-1.01-.621 3.819 3.819 0 00-1.413-.234 3.641 3.641 0 00-1.3.2 2.47 2.47 0 00-.848.517 1.947 1.947 0 00-.468.694 2.106 2.106 0 00-.145.751 1.953 1.953 0 00.379 1.171 4.3 4.3 0 001 .969 11.451 11.451 0 001.421.856q.8.412 1.623.832t1.623.872a8.388 8.388 0 011.421 1 4.825 4.825 0 011 1.211 2.969 2.969 0 01.379 1.5 4.2 4.2 0 01-.4 1.833 4.067 4.067 0 01-1.2 1.469 6.016 6.016 0 01-1.97.977 9.413 9.413 0 01-2.72.355" fill="#fff"/></svg>