<svg xmlns="http://www.w3.org/2000/svg" width="182.707" height="60.688"><defs><clipPath id="a"><path fill="none" d="M0 0h182.707v60.688H0z"/></clipPath></defs><path fill="#004372" d="M0 0h182.707v60.688H0z"/><g clip-path="url(#a)"><path d="M39.71 39.374a12.247 12.247 0 01-12.385 12.174 12.72 12.72 0 01-9.184-4.152 11.739 11.739 0 01-2.956-8.128 12.263 12.263 0 0124.525.106zm-20.971-.071a8.384 8.384 0 002.6 6.4 8.874 8.874 0 006.017 2.5 8.851 8.851 0 10-8.621-8.9zm35.185 2.144c-1.583-1.9-2.6-2.5-4.258-2.5a4.529 4.529 0 00-4.5 4.75 4.464 4.464 0 004.434 4.785c1.689 0 2.674-.6 4.328-2.569v4.539a8.1 8.1 0 01-4.187 1.091 7.786 7.786 0 01-8.058-7.811 7.888 7.888 0 018.093-7.847 8.537 8.537 0 014.152 1.021zm5.698 3.347a4.534 4.534 0 00.422 2.357 2.969 2.969 0 004.962 0 4.539 4.539 0 00.422-2.357v-8.515h3.413v8.585c0 2.323-.422 3.589-1.548 4.821a7.028 7.028 0 01-9.536 0c-1.126-1.232-1.548-2.5-1.548-4.821v-8.585h3.413z" fill="#fff"/></g><path d="M83.216 34.854a4.288 4.288 0 00-3.405-1.7c-1.671 0-2.964 1.04-2.964 2.333 0 1.135.725 1.734 3.185 2.648a12.526 12.526 0 014.193 2.112 5.532 5.532 0 011.86 4.414c0 4.13-2.964 6.936-7.315 6.936a8.25 8.25 0 01-7.22-4l2.648-2.554a4.882 4.882 0 004.414 2.806 3.034 3.034 0 003.247-2.964 2.5 2.5 0 00-1.135-2.112 13.166 13.166 0 00-2.932-1.261c-3.783-1.355-5.17-2.9-5.17-5.675 0-3.531 2.775-6.116 6.558-6.116a9.206 9.206 0 016.18 2.333zm13.84 9.522l5.139-14.5h2.239l4.887 14.5 5.044-14.313h4.317l-7.913 21.438H107.9l-4.666-13.746-4.918 13.746h-2.869l-7.441-21.438h4.319zm28.843 6.714h-4.1V30.062h4.1zm15.735-16.236a4.288 4.288 0 00-3.4-1.7c-1.671 0-2.963 1.04-2.963 2.333 0 1.135.725 1.734 3.184 2.648a12.526 12.526 0 014.193 2.112 5.532 5.532 0 011.86 4.414c0 4.13-2.964 6.936-7.315 6.936a8.25 8.25 0 01-7.22-4l2.648-2.554a4.882 4.882 0 004.414 2.806 3.034 3.034 0 003.247-2.964 2.5 2.5 0 00-1.135-2.112 13.167 13.167 0 00-2.932-1.261c-3.783-1.355-5.17-2.9-5.17-5.675 0-3.531 2.775-6.116 6.558-6.116a9.206 9.206 0 016.18 2.333zm17.403 0a4.287 4.287 0 00-3.4-1.7c-1.671 0-2.964 1.04-2.964 2.333 0 1.135.725 1.734 3.184 2.648a12.521 12.521 0 014.193 2.112 5.532 5.532 0 011.86 4.414c0 4.13-2.964 6.936-7.314 6.936a8.249 8.249 0 01-7.22-4l2.648-2.554a4.881 4.881 0 004.414 2.806 3.034 3.034 0 003.247-2.964 2.5 2.5 0 00-1.135-2.112 13.169 13.169 0 00-2.932-1.261c-3.783-1.355-5.17-2.9-5.17-5.675 0-3.531 2.774-6.116 6.557-6.116a9.2 9.2 0 016.18 2.333zM16.904 22.634h-2.03V12.218h3.048a3.716 3.716 0 012.748.8 3.365 3.365 0 011.062 2.514 3.482 3.482 0 01-.843 2.327 3.442 3.442 0 01-2.67.921h-1.315zm.827-5.622c1.265 0 1.905-.5 1.905-1.5a1.508 1.508 0 00-.531-1.2 2.42 2.42 0 00-1.5-.328h-.7v3.03zm6.794-1.14v1.031a2.126 2.126 0 011.967-1.249 1.878 1.878 0 01.827.172l-.264 1.763a1.788 1.788 0 00-2.108.25 2.134 2.134 0 00-.422 1.55v3.248h-1.89v-6.765zm4.965 3.685c.047 1.171.624 1.812 1.655 1.812a1.761 1.761 0 001.608-.906l1.749.281a3.318 3.318 0 01-3.311 2.108 3.4 3.4 0 01-3.638-3.591 3.353 3.353 0 013.545-3.607c2.139 0 3.467 1.39 3.467 3.654v.25zm3.263-1.2a1.625 1.625 0 00-3.2 0zm4.841-2.485v.781a2.559 2.559 0 012.061-1 2.262 2.262 0 012.108 1.234 2.486 2.486 0 012.217-1.234 2.178 2.178 0 011.89.969 2.969 2.969 0 01.359 1.64v4.372h-1.89v-3.7a2.414 2.414 0 00-.156-1.078 1.018 1.018 0 00-.953-.593 1.2 1.2 0 00-1.109.672 2.75 2.75 0 00-.2 1.234v3.466h-1.89v-3.593a2.778 2.778 0 00-.141-1.124 1.1 1.1 0 00-1.015-.656 1.246 1.246 0 00-1.062.609 2.6 2.6 0 00-.219 1.3v3.466h-1.89v-6.765zm12.211-2.858a1.14 1.14 0 11-1.14-1.14 1.146 1.146 0 011.14 1.14zm-.2 9.619h-1.89v-6.761h1.89zm3.37-2.935c0 1.016.469 1.546 1.39 1.546.906 0 1.374-.53 1.374-1.546v-3.826h1.89v4.138c0 1.827-1.171 2.842-3.264 2.842s-3.279-1.015-3.279-2.842v-4.138h1.89zm8.058-3.826v.781a2.559 2.559 0 012.061-1 2.262 2.262 0 012.11 1.236 2.486 2.486 0 012.217-1.234 2.179 2.179 0 011.89.969 2.969 2.969 0 01.359 1.64v4.372h-1.89v-3.7a2.414 2.414 0 00-.156-1.078 1.018 1.018 0 00-.953-.593 1.2 1.2 0 00-1.109.672 2.75 2.75 0 00-.2 1.234v3.466h-1.89v-3.595a2.778 2.778 0 00-.141-1.124 1.1 1.1 0 00-1.015-.656 1.246 1.246 0 00-1.062.609 2.6 2.6 0 00-.219 1.3v3.466h-1.89v-6.765z" fill="#fff"/></svg>