<svg xmlns="http://www.w3.org/2000/svg" width="65" height="65"><path d="M0 0v65h65V0z" fill="#5f5f5f"/><path d="M25.762 32.363c0 3.392-.733 5.959-4.492 5.959-4.217 0-4.676-3.025-4.676-5.5V13.66l-5.409 1.192v18.794c0 7.151 4.951 9.9 9.81 9.9 6.326 0 10.085-4.034 10.085-9.076V13.66l-5.41 1.192v17.511zm18.977-10.91a10.123 10.123 0 00-5.867 1.834v-3.026l-5.226 1.284v28.7l5.226-1.192v-7.339a9.917 9.917 0 005.867 1.834 10.767 10.767 0 0010.543-11c0-6.048-4.676-11.095-10.543-11.095zm-.275 17.327a6.09 6.09 0 01-5.959-6.326 5.97 5.97 0 1111.918 0 6.09 6.09 0 01-5.959 6.326z" fill="#fff"/></svg>