<svg xmlns="http://www.w3.org/2000/svg" xmlns:xlink="http://www.w3.org/1999/xlink"><defs><clipPath id="a"><path fill="none" d="M0 0h182.707v60.688H0z"/></clipPath></defs><symbol id="arrow-small" viewBox="0 0 5 8"><path d="M0 1l1.019-1L5 4 1.019 8 0 7l3-3z"/></symbol><symbol id="arrow" viewBox="0 0 20 20"><path d="M14 0H6C2.7 0 0 2.7 0 6v8c0 3.3 2.7 6 6 6h8c3.3 0 6-2.7 6-6V6c0-3.3-2.7-6-6-6zM9 14l-1-1 3-3-3-3 1-1 4 4-4 4z"/></symbol><symbol id="barcode"><path d="M21 2a1 1 0 011 1v10a1 1 0 01-1 1H3a1 1 0 01-1-1V3a1 1 0 011-1zm0-2H3a3 3 0 00-3 3v10a3 3 0 003 3h18a3 3 0 003-3V3a3 3 0 00-3-3zM4 12V4h2v8zm12 0V4h2v8zm-9 0V4h1v8zm2 0V4h2v8zm3 0V4h1v8zm2 0V4h1v8zm5 0V4h1v8z"/></symbol><symbol id="burger"><path d="M0 0h23v3H0zm0 8h23v3H0zm0 8h23v3H0z" fill="#fff"/></symbol><symbol id="cart"><path d="M11.507 0a1.044 1.044 0 00-.858.45L5.915 7.304H1.046A1.046 1.046 0 00.033 8.625l2.672 9.668a2.1 2.1 0 002.012 1.533h10.63l-1.714-6.788a2.086 2.086 0 013.045-2.332l4.905 2.761 1.337-4.836a1.046 1.046 0 00-1.009-1.323h-4.86L12.37.458a1.043 1.043 0 00-.858-.454zm0 2.886l3.018 4.418H8.45zm4.15 9.64l2.348 9.261 1.449-2.572 2.855 3.74 1.659-1.266-2.855-3.74 2.892-.73z"/></symbol><symbol id="clock"><path d="M8 0a8 8 0 108 8 8 8 0 00-8-8zm4 9.333H7.333V4h1.334v4H12z"/></symbol><symbol id="contacts-agent"><g transform="translate(-400.5 -5898)"><circle cx="20" cy="20" r="20" transform="translate(400.5 5898)" fill="#8dc741"/><path d="M432.264 5930.128c-4.585-1.059-8.853-1.987-6.787-5.891 6.293-11.882 1.668-18.237-4.976-18.237-6.776 0-11.285 6.6-4.976 18.237 2.129 3.927-2.3 4.855-6.787 5.891-4.097.947-4.25 2.981-4.237 6.539l.005 1.333h31.987l.008-1.292c.016-3.584-.123-5.629-4.235-6.58z" fill="#fff"/></g></symbol><symbol id="contacts-location"><path d="M10.667 0C5.069 0 0 4.537 0 10.136S4.625 22.416 10.667 32c6.041-9.584 10.667-16.267 10.667-21.864S16.265 0 10.667 0zm0 14.667a4 4 0 114-4 4 4 0 01-4 4z" fill="#8dc741"/></symbol><symbol id="contacts-mail"><path d="M18.063 34.948C6.343 34.948 0 27.63 0 18.188 0 8.097 7.143 0 19.914 0 29.235 0 36 6.057 36 14.402c0 13.068-15.495 16.518-14.718 9.063a6.843 6.843 0 01-6.082 3.531c-3.774 0-6.12-2.763-6.12-7.211 0-6.666 4.381-12.3 9.569-12.3a4.9 4.9 0 014.916 3.332l.7-2.448h3.505c-.37 1.249-3.482 12.792-3.482 12.792-.972 4 2.025 4.069 4.683 1.945 4.993-3.87 5.251-13.99-1.5-18.211C20.243.558 3.782 3.242 3.782 17.934c0 8.417 5.925 14.071 14.744 14.071a20.151 20.151 0 0010.942-2.922l1.766 2.547a25.587 25.587 0 01-13.171 3.318zm-3.516-21.461a15.3 15.3 0 00-1.766 6.636c0 5.415 5.283 5.449 7.878.358a16.256 16.256 0 001.757-6.793c0-4.375-5.243-5.151-7.869-.2z" fill="#8dc741"/></symbol><symbol id="contacts-phone"><path d="M18.667 2.667A2.668 2.668 0 0016 0H2.667A2.668 2.668 0 000 2.667v26.666A2.668 2.668 0 002.667 32H16a2.668 2.668 0 002.667-2.667zm-11.333 0h4a.667.667 0 110 1.333h-4a.667.667 0 010-1.333zm2 26.667A1.333 1.333 0 1110.665 28a1.333 1.333 0 01-1.332 1.333zm6.667-4H2.667V6.635H16z" fill="#8dc741"/></symbol><symbol id="contacts-schedule" viewBox="0 0 32 32"><path d="M16 0a16 16 0 1016 16A16 16 0 0016 0zm8 18.667h-9.333V8h2.667v8H24z" fill="#8dc741"/></symbol><symbol id="cross" viewBox="0 0 16 16"><path d="M8 10.01L2.037 16 0 14l6-6-6-6 2.038-2L8 5.991 13.961 0 16 2l-6 6 6 6-2.038 2z" fill="#fff"/></symbol><symbol id="edenred_logo"><path d="M46.923 32.952a4.008 4.008 0 00-4.034 3.334h7.835a3.6 3.6 0 00-3.801-3.334zm-20.937.834a4.651 4.651 0 000 9.3 4.651 4.651 0 000-9.3z" fill="#5f5f5f"/><path d="M82.531 29.352c-4.216 0-7.485 1.68-8.02 6.042C73.178 15.628 57.586 0 37.486 0A37.941 37.941 0 002.36 23.61l13.453.005-.7 4.54H4.543v4.8h9.573l-.733 4.362h-8.84v2.8c0 1.7.733 2.5 2.137 2.5h9.035l-.733 4.54H4.97a7.923 7.923 0 01-1.388-.123 4.485 4.485 0 01-2.805-1.583 3.7 3.7 0 01-.678-1.4c-.055-.224-.062-.237-.1-.412.071.564.191 1.323.246 1.6.3 1.583.691 2.919.726 3.016a38.008 38.008 0 0073.422-1.1h-5.1v-9.264c0-2.5-.973-4.1-3.434-4.1s-3.434 1.6-3.434 4.1v9.269h-5.1V36.623c0-5.036 3.668-7.268 8.539-7.268s8.536 2.234 8.536 7.268V47.16h5.143v-9.269c0-2.5.668-4.1 3.1-4.1a5.75 5.75 0 012.033.4l.973-4.469a24.4 24.4 0 00-3.117-.366zm-46.771 8.03c0 6.369-3.768 10.1-10 10.1-5.769 0-9.671-3.869-9.671-9.08 0-5.435 3.7-9.08 9.236-9.08a7.345 7.345 0 015.335 2v-7.706h5.1zm12.868 6.269a9.992 9.992 0 004.2-1.035l-.425 4.034a13.465 13.465 0 01-5 .833c-5.87 0-10-3.434-10-9.269 0-5.069 3.7-8.87 9.369-8.87 6.4 0 9.6 4.067 9.47 10.335h-13.22c.5 2.89 3.233 3.976 5.6 3.976zm45.471-14.299c-5.669 0-9.369 3.814-9.369 8.87 0 5.837 4.135 9.269 10 9.269a13.465 13.465 0 005-.833l.425-4.034a9.976 9.976 0 01-4.19 1.035c-2.367 0-5.1-1.1-5.6-3.969h13.206c.134-6.271-3.067-10.338-9.472-10.338zm-3.856 6.937a4.008 4.008 0 014.034-3.334 3.6 3.6 0 013.8 3.334zm28.464-12.673v7.735a7.359 7.359 0 00-5.335-2c-5.536 0-9.236 3.635-9.236 9.08 0 5.189 3.892 9.08 9.671 9.08 6.236 0 10-3.736 10-10.1V23.616zM114.04 43.09a4.422 4.422 0 01-4.569-4.667 4.6 4.6 0 114.569 4.667z" fill="#5f5f5f"/></symbol><symbol id="exciderm_logo"><path d="M29.404 20.937H15.22V.267h14.184v4.175h-9.95v3.879h8.677v4h-8.676v4.442h9.95zm20.728 0h-5.06l-4.412-7.048-4.442 7.048h-5.034l7.048-10.631L31.539.267h5.064l4.057 6.485L44.717.267h5.034l-6.663 10.039zm17.027-3.583c-2.281 2.695-3.791 3.849-7.4 3.849-6.13 0-9-5.034-9-10.6 0-5.6 2.813-10.6 8.973-10.6 3.257 0 5.241 1.126 7.285 3.583L64.02 6.515c-1.214-1.362-2.339-2.34-4.294-2.34-3.553 0-4.649 3.465-4.649 6.426s1.1 6.426 4.649 6.426c2.014 0 3.228-1.066 4.442-2.577zm6.957 3.583h-4.234V.267h4.234zM5.834 45.513H0v-20.67h5.834c8 0 9.861 2.517 9.861 10.335s-1.866 10.335-9.861 10.335zm5.034-15.192c-.622-1.007-1.836-1.3-4.086-1.3H4.239v12.317h2.547c2.28 0 3.494-.326 4.116-1.392.415-.711.563-1.688.563-4.738-.005-2.962-.153-4.146-.597-4.886zm22.564 15.192H19.247v-20.67h14.185v4.176h-9.95v3.879h8.677v4h-8.677v4.442h9.95zm14.301-8.795a6.609 6.609 0 01.829 1.1l4.916 7.7h-4.913l-4.146-6.93c-.622-1.065-.888-1.391-2.162-1.391H41.22v8.321h-4.234v-20.67h7.579c4.028 0 7.166 1.925 7.166 6.279a5.833 5.833 0 01-3.998 5.591zm-3.139-7.789h-3.376v4.531h3.376c1.629 0 2.9-.415 2.9-2.31.002-1.865-1.329-2.222-2.9-2.222zm29.79 16.584H70.12V35.8l-3.968 9.713h-2.638L59.575 35.8v9.713h-4.261v-20.67h4.027l5.478 13.8 5.6-13.8h3.968z" fill="#da0068"/></symbol><symbol id="facebook" viewBox="0 0 50 50"><g transform="translate(-371 -7264)"><circle cx="25" cy="25" r="25" transform="translate(371 7264)" fill="#fff"/><path d="M393 7285h-3v4h3v12h5v-12h3.642l.358-4h-4v-1.667c0-.955.192-1.333 1.115-1.333H402v-5h-3.808c-3.592 0-5.192 1.583-5.192 4.615z" fill="#ed1c24"/></g></symbol><symbol id="geria_logo"><path fill="#ff5000" d="M0 0h88.356v60.688H0z"/><text transform="translate(79.315 36.46)" fill="#fff" font-size="4" font-family="SegoeUI, Segoe UI"><tspan x="0" y="0">&#xAE;</tspan></text><path d="M17.241 18.001h6.684v6.2q-.775.42-1.55.759a14.072 14.072 0 01-1.647.6 12.48 12.48 0 01-1.905.4 17.964 17.964 0 01-2.341.137 12.119 12.119 0 01-3.834-.581 9.149 9.149 0 01-3.019-1.639 7.452 7.452 0 01-2.7-5.869 8.508 8.508 0 01.71-3.511 7.971 7.971 0 011.986-2.729A9.145 9.145 0 0112.644 10a11.193 11.193 0 013.827-.63 8.352 8.352 0 012.357.331 10.113 10.113 0 012.1.872 9 9 0 011.736 1.251 8.4 8.4 0 011.267 1.453l-1.63 1.485a14.534 14.534 0 00-1.074-1.34 7.913 7.913 0 00-1.187-1.074 5.38 5.38 0 00-1.34-.719 4.457 4.457 0 00-1.534-.258 5.888 5.888 0 00-2.324.452 5.4 5.4 0 00-1.857 1.3 5.969 5.969 0 00-1.235 2.083 8.251 8.251 0 00-.444 2.8 7.477 7.477 0 00.476 2.769 5.853 5.853 0 001.292 2.019 5.4 5.4 0 001.913 1.235 6.538 6.538 0 002.357.42 5.035 5.035 0 001.421-.194 3.858 3.858 0 001.211-.6v-4.282h-2.729zm21.842-8.246v1.373H31.01v5.312h6.7v1.373h-6.7v6.393h8.073v1.647H27.054V9.755zm6.389 7.406h.856a4.265 4.265 0 001.34-.2 3.178 3.178 0 001.065-.581 2.7 2.7 0 00.711-.92 2.841 2.841 0 00.258-1.235 3.39 3.39 0 00-.193-1.162 2.733 2.733 0 00-.549-.92 2.567 2.567 0 00-.832-.605 2.51 2.51 0 00-1.057-.218h-1.6zM41.517 9.75h6.054a10.116 10.116 0 012.737.331 5.993 5.993 0 011.954.912 3.743 3.743 0 011.17 1.388 4.014 4.014 0 01.388 1.76 3.2 3.2 0 01-.267 1.291 3.933 3.933 0 01-.751 1.13 5.254 5.254 0 01-1.162.92 7.029 7.029 0 01-1.5.662l5.732 7.7h-4.295l-5.409-7.281h-.694v7.281h-3.955zm15.464 0h3.939v16.097h-3.939zm10.814 10.205h4.844l-2.39-5.2zm4.02-10.543l7.539 16.436h-4.036L73.3 21.457h-6.252l-2.115 4.391h-2.68L70.1 9.412zM13.14 52.228a8.508 8.508 0 01-2.535-.339 5.808 5.808 0 01-1.848-.937 4.587 4.587 0 01-1.219-1.421 5.609 5.609 0 01-.614-1.809h2.745a4.705 4.705 0 00.42 1.13 3.372 3.372 0 00.694.9 3.038 3.038 0 00.993.606 3.741 3.741 0 001.332.218 4.748 4.748 0 00.993-.105 2.72 2.72 0 00.88-.347 1.955 1.955 0 00.63-.63 1.765 1.765 0 00.242-.952 2.233 2.233 0 00-.371-1.267 4.225 4.225 0 00-.977-1.017 9.37 9.37 0 00-1.373-.856q-.766-.4-1.574-.791t-1.574-.832a7.94 7.94 0 01-1.373-.977 4.567 4.567 0 01-.977-1.219 3.207 3.207 0 01-.371-1.566 3.85 3.85 0 01.42-1.776 4.078 4.078 0 011.219-1.421 6.122 6.122 0 011.945-.937 9.236 9.236 0 012.616-.339 6.719 6.719 0 012.2.339 6.018 6.018 0 011.736.92 5.6 5.6 0 011.268 1.372 6.584 6.584 0 01.791 1.7h-2.487a7.778 7.778 0 00-.492-1.1 3.526 3.526 0 00-.7-.9 3.225 3.225 0 00-1.009-.621 3.82 3.82 0 00-1.413-.234 3.64 3.64 0 00-1.3.2 2.461 2.461 0 00-.848.517 1.934 1.934 0 00-.468.694 2.1 2.1 0 00-.145.751 1.95 1.95 0 00.379 1.171 4.3 4.3 0 001 .969 11.45 11.45 0 001.421.856q.8.412 1.623.832t1.623.872a8.367 8.367 0 011.421 1 4.815 4.815 0 011 1.211 2.97 2.97 0 01.379 1.5 4.212 4.212 0 01-.4 1.833 4.069 4.069 0 01-1.2 1.469 6.015 6.015 0 01-1.97.977 9.413 9.413 0 01-2.72.355M24.534 35.89l4.085 10.4 4.1-10.575 4.133 10.527 3.988-10.349h2.632l-6.329 16.339h-1.792l-3.294-8.4-3.245 8.4H27.02l-6.458-16.339zm20.888-.001h3.94v16.097h-3.94zm13.396 16.339a8.5 8.5 0 01-2.535-.339 5.805 5.805 0 01-1.849-.937 4.592 4.592 0 01-1.219-1.421 5.6 5.6 0 01-.614-1.809h2.745a4.684 4.684 0 00.42 1.13 3.364 3.364 0 00.694.9 3.036 3.036 0 00.993.606 3.744 3.744 0 001.333.218 4.746 4.746 0 00.992-.105 2.716 2.716 0 00.88-.347 1.957 1.957 0 00.63-.63 1.769 1.769 0 00.242-.952 2.233 2.233 0 00-.371-1.267 4.231 4.231 0 00-.977-1.017 9.4 9.4 0 00-1.373-.856q-.767-.4-1.574-.791t-1.574-.832a7.94 7.94 0 01-1.372-.977 4.567 4.567 0 01-.977-1.219 3.2 3.2 0 01-.372-1.566 3.844 3.844 0 01.42-1.776 4.071 4.071 0 011.219-1.421 6.125 6.125 0 011.946-.937 9.232 9.232 0 012.615-.339 6.719 6.719 0 012.2.339 6.021 6.021 0 011.736.92 5.59 5.59 0 011.267 1.372 6.568 6.568 0 01.792 1.7h-2.487a7.837 7.837 0 00-.492-1.1 3.518 3.518 0 00-.7-.9 3.217 3.217 0 00-1.009-.621 3.822 3.822 0 00-1.413-.234 3.64 3.64 0 00-1.3.2 2.456 2.456 0 00-.848.517 1.921 1.921 0 00-.468.694 2.086 2.086 0 00-.145.751 1.947 1.947 0 00.38 1.171 4.288 4.288 0 001 .969 11.446 11.446 0 001.421.856q.8.412 1.623.832t1.623.872a8.366 8.366 0 011.421 1 4.813 4.813 0 011 1.211 2.965 2.965 0 01.38 1.5 4.212 4.212 0 01-.4 1.833 4.064 4.064 0 01-1.2 1.469 6.013 6.013 0 01-1.969.977 9.417 9.417 0 01-2.721.355m14.918.001a8.511 8.511 0 01-2.535-.339 5.813 5.813 0 01-1.848-.937 4.578 4.578 0 01-1.219-1.421 5.575 5.575 0 01-.613-1.809h2.744a4.685 4.685 0 00.42 1.13 3.37 3.37 0 00.694.9 3.036 3.036 0 00.993.606 3.744 3.744 0 001.332.218 4.748 4.748 0 00.993-.105 2.723 2.723 0 00.88-.347 1.949 1.949 0 00.629-.63 1.76 1.76 0 00.242-.952 2.233 2.233 0 00-.371-1.267 4.232 4.232 0 00-.977-1.017 9.4 9.4 0 00-1.372-.856q-.767-.4-1.574-.791t-1.574-.832a7.944 7.944 0 01-1.373-.977 4.576 4.576 0 01-.977-1.219 3.206 3.206 0 01-.371-1.566 3.85 3.85 0 01.42-1.776 4.081 4.081 0 011.219-1.421 6.126 6.126 0 011.946-.937 9.232 9.232 0 012.615-.339 6.722 6.722 0 012.2.339 6.014 6.014 0 011.735.92 5.591 5.591 0 011.268 1.372 6.568 6.568 0 01.791 1.7H77.58a7.834 7.834 0 00-.492-1.1 3.549 3.549 0 00-.7-.9 3.222 3.222 0 00-1.01-.621 3.819 3.819 0 00-1.413-.234 3.641 3.641 0 00-1.3.2 2.47 2.47 0 00-.848.517 1.947 1.947 0 00-.468.694 2.106 2.106 0 00-.145.751 1.953 1.953 0 00.379 1.171 4.3 4.3 0 001 .969 11.451 11.451 0 001.421.856q.8.412 1.623.832t1.623.872a8.388 8.388 0 011.421 1 4.825 4.825 0 011 1.211 2.969 2.969 0 01.379 1.5 4.2 4.2 0 01-.4 1.833 4.067 4.067 0 01-1.2 1.469 6.016 6.016 0 01-1.97.977 9.413 9.413 0 01-2.72.355" fill="#fff"/></symbol><symbol id="instagram" viewBox="0 0 50 50"><g transform="translate(-311 -7249)"><circle cx="25" cy="25" r="25" transform="translate(311 7249)" fill="#fff"/><path d="M336 7286c-3.224 0-3.652-.014-4.947-.072-4.366-.2-6.78-2.615-6.98-6.98-.059-1.294-.073-1.723-.073-4.948s.014-3.656.073-4.948c.2-4.366 2.614-6.78 6.98-6.98 1.295-.058 1.723-.072 4.947-.072s3.658.014 4.949.073c4.369.2 6.783 2.614 6.979 6.98.059 1.295.072 1.723.072 4.947s-.014 3.658-.073 4.948c-.2 4.365-2.611 6.779-6.979 6.98-1.294.059-1.723.072-4.948.072zm0-17.317a6.162 6.162 0 106.162 6.161 6.168 6.168 0 00-6.162-6.161zm6.406-1.683a1.44 1.44 0 101.439 1.44 1.442 1.442 0 00-1.439-1.44zM336 7278.845a4 4 0 114-4 4 4 0 01-4 4z" fill="#ed1c24"/></g></symbol><symbol id="location-black" viewBox="0 0 10.667 16"><path d="M5.333 0A5.3 5.3 0 000 5.068C0 7.867 2.313 11.208 5.333 16c3.021-4.792 5.333-8.133 5.333-10.932A5.3 5.3 0 005.333 0zm0 7.333a2 2 0 112-2 2 2 0 01-2 2z"/></symbol><symbol id="location-white" viewBox="0 0 10.667 16"><path d="M5.333 0A5.3 5.3 0 000 5.068C0 7.867 2.313 11.208 5.333 16c3.021-4.792 5.333-8.133 5.333-10.932A5.3 5.3 0 005.333 0zm0 7.333a2 2 0 112-2 2 2 0 01-2 2z" fill="#fff"/></symbol><symbol id="logo-white"><path d="M95.127 29.121h1.588v10.215h6.019v1.45h-7.607zm16.453 7.298c0 .117-.016.283-.032.483h-6.829a2.777 2.777 0 00.985 1.866 2.993 2.993 0 002.065.717 3.051 3.051 0 002.43-1.066l.842 1.033a3.81 3.81 0 01-1.414 1.066 4.706 4.706 0 01-1.906.367 4.771 4.771 0 01-2.366-.583 3.861 3.861 0 01-1.588-1.6 4.721 4.721 0 01-.572-2.333 4.87 4.87 0 01.556-2.316 3.973 3.973 0 011.509-1.6 3.945 3.945 0 012.16-.583 3.945 3.945 0 012.16.583 4.122 4.122 0 011.477 1.6 5.159 5.159 0 01.523 2.366zm-4.161-3.2a2.545 2.545 0 00-1.826.7 2.869 2.869 0 00-.874 1.833h5.4a2.811 2.811 0 00-.858-1.816 2.527 2.527 0 00-1.842-.716zm.953-4.716h1.938l-2.668 2.166h-1.431zm8.342 8.166l-1.747 1.7v2.416h-1.525V28.421h1.525v7.932l4.59-4.4h1.842l-3.542 3.651 3.891 5.182h-1.874zm9.16-4.799a3.748 3.748 0 012.684.9 3.578 3.578 0 01.921 2.683v5.332h-1.445v-1.166a2.425 2.425 0 01-1.08.933 4.018 4.018 0 01-1.684.333 3.407 3.407 0 01-2.271-.717 2.369 2.369 0 01-.842-1.883 2.393 2.393 0 01.81-1.883 3.888 3.888 0 012.573-.7h2.414v-.317a2.1 2.1 0 00-.572-1.583 2.33 2.33 0 00-1.684-.55 4.419 4.419 0 00-1.461.25 4.126 4.126 0 00-1.207.7l-.635-1.2a4.6 4.6 0 011.556-.85 6.553 6.553 0 011.923-.282zm-.349 7.782a2.646 2.646 0 001.509-.417 2.242 2.242 0 00.921-1.15v-1.233h-2.351c-1.286 0-1.938.45-1.938 1.366a1.23 1.23 0 00.492 1.05 2.209 2.209 0 001.366.384zm1.429-11.148h1.938l-2.668 2.166h-1.426zm6.563 4.932a2.631 2.631 0 011.171-1.166 4.1 4.1 0 011.89-.4v1.55a2.038 2.038 0 00-.349-.017 2.464 2.464 0 00-1.938.767 3.171 3.171 0 00-.715 2.216v4.4h-1.52v-8.832h1.461zm9.179-1.566a3.363 3.363 0 012.557.983 3.952 3.952 0 01.937 2.849v5.082h-1.525v-4.9a2.781 2.781 0 00-.588-1.933 2.161 2.161 0 00-1.684-.65 2.57 2.57 0 00-1.954.75 3.082 3.082 0 00-.715 2.183v4.549h-1.523v-8.832h1.461v1.333a3.068 3.068 0 011.255-1.05 4.064 4.064 0 011.779-.364zm13.356.084l-4.084 9.715a4.472 4.472 0 01-1.255 1.9 2.822 2.822 0 01-1.747.55 3.217 3.217 0 01-1.191-.217 2.328 2.328 0 01-.969-.6l.651-1.2a2.064 2.064 0 001.509.65 1.329 1.329 0 00.921-.317 2.562 2.562 0 00.683-1.05l.27-.617-3.716-8.815h1.588l2.94 7.066 2.9-7.065zM14.979 7.651V.544h-8.45v6.735h-6.53v8.724h6.53v7.105h8.45v-6.735h6.528V7.651zM1.926 9.267h6.528V2.532h4.6v5.15a7.233 7.233 0 00-6.45 6.333H1.929zm11.025.424a5.282 5.282 0 01-4.394 4.266 5.278 5.278 0 014.394-4.266m6.629 4.692h-6.528v6.736h-4.6v-5.147a7.246 7.246 0 006.453-6.334h4.674zM31.423.949h5.4l5.983 9.29 5.98-9.29h5.4v21.985h-4.98V8.587l-6.4 9.392h-.13l-6.343-9.3v14.254h-4.91zM56.464 18.09v-.045c0-3.69 2.892-5.381 7.019-5.381a12.687 12.687 0 014.264.691v-.282c0-1.986-1.268-3.087-3.741-3.087a13.016 13.016 0 00-4.816.928L57.956 7.27a15.754 15.754 0 016.767-1.362c2.694 0 4.641.689 5.879 1.889a7.233 7.233 0 011.889 5.373v9.767h-4.776v-1.824a6.792 6.792 0 01-5.267 2.146c-3.29-.003-5.984-1.835-5.984-5.169m11.343-1.1v-.841a7.922 7.922 0 00-3.151-.636c-2.107 0-3.421.831-3.421 2.343v.061c0 1.271 1.113 2.033 2.705 2.033 2.306 0 3.866-1.22 3.866-2.959m7.425 9.284l1.692-3.589a11.481 11.481 0 005.88 1.536c3.373 0 4.98-1.554 4.98-4.582v-.819a6.934 6.934 0 01-5.697 2.743 7.521 7.521 0 01-7.732-7.851v-.087a7.522 7.522 0 017.732-7.833 7.151 7.151 0 015.616 2.5V6.108h4.941v13.033c0 3.006-.728 5.219-2.208 6.639-1.626 1.553-4.124 2.246-7.506 2.246a16.938 16.938 0 01-7.7-1.751m12.554-12.562v-.087a3.973 3.973 0 00-4.265-3.883 3.939 3.939 0 00-4.219 3.883v.087a3.926 3.926 0 004.219 3.892 3.983 3.983 0 004.265-3.892M95.56 0h5.192v4.258H95.56zm.118 6.106h4.957v16.828h-4.957zm6.614 14.607l2.1-3.147a10.152 10.152 0 005.5 2.01c1.427 0 2.077-.494 2.077-1.264v-.046c0-1.054-1.688-1.38-3.6-1.962-2.438-.681-5.2-1.792-5.2-5.058v-.063c0-3.417 2.859-5.326 6.378-5.326a12.219 12.219 0 016.487 1.944l-1.893 3.291a10.5 10.5 0 00-4.711-1.55c-1.2 0-1.812.482-1.812 1.135v.09c0 .94 1.657 1.372 3.548 1.99 2.432.8 5.264 1.925 5.264 5.016v.049c0 3.751-2.894 5.439-6.664 5.439a12.408 12.408 0 01-7.474-2.548m16.544-2.562v-7.967h-2.081V6.11h2.081V1.793h4.959V6.11h4.077v4.078h-4.08v7.188c0 1.092.475 1.654 1.572 1.654a5.263 5.263 0 002.442-.612v3.837a7.5 7.5 0 01-3.906.966c-3.029 0-5.067-1.163-5.067-5.067m11.064-12.048h4.947v3.385c1-2.325 2.625-3.835 5.554-3.7v4.975h-.269c-3.29 0-5.285 1.939-5.285 5.946v6.22h-4.947zm10.102 11.984v-.045c0-3.69 2.905-5.381 7.041-5.381a12.547 12.547 0 014.24.691v-.282c0-1.986-1.26-3.087-3.73-3.087a12.965 12.965 0 00-4.814.928l-1.222-3.644a15.661 15.661 0 016.755-1.362c2.689 0 4.642.689 5.878 1.889a7.234 7.234 0 011.878 5.373v9.767h-4.77v-1.824a6.769 6.769 0 01-5.27 2.146c-3.286-.003-5.986-1.835-5.986-5.169m11.345-1.1v-.841a7.84 7.84 0 00-3.145-.635c-2.1 0-3.408.831-3.408 2.343v.061c0 1.271 1.12 2.033 2.7 2.033 2.312 0 3.858-1.22 3.858-2.959m8.643 6.203h5.255v-5.19h-5.255zm16.353.389a8.755 8.755 0 007.1-3.178l-2.887-2.919a5.507 5.507 0 01-3.99 1.849c-2.692 0-4.411-2.141-4.411-4.8v-.065c0-2.562 1.752-4.735 4.216-4.735a5.079 5.079 0 013.957 1.914l3.016-3.243a8.546 8.546 0 00-6.941-2.919 8.925 8.925 0 00-9.114 9.049v.065a8.876 8.876 0 009.049 8.984m8.54-.389h15.115v-3.99h-9.016l9.016-9.925v-3.47h-14.823v3.99h8.693l-8.985 9.925z" fill="#fff"/></symbol><symbol id="logo" viewBox="0 0 200 44"><path d="M95.127 29.121h1.588v10.215h6.019v1.45h-7.607zm16.453 7.298c0 .117-.016.283-.032.483h-6.829a2.777 2.777 0 00.985 1.866 2.993 2.993 0 002.065.717 3.051 3.051 0 002.43-1.066l.842 1.033a3.81 3.81 0 01-1.414 1.066 4.706 4.706 0 01-1.906.367 4.771 4.771 0 01-2.366-.583 3.861 3.861 0 01-1.588-1.6 4.721 4.721 0 01-.572-2.333 4.87 4.87 0 01.556-2.316 3.973 3.973 0 011.509-1.6 3.945 3.945 0 012.16-.583 3.945 3.945 0 012.16.583 4.122 4.122 0 011.477 1.6 5.159 5.159 0 01.523 2.366zm-4.161-3.2a2.545 2.545 0 00-1.826.7 2.869 2.869 0 00-.874 1.833h5.4a2.811 2.811 0 00-.858-1.816 2.527 2.527 0 00-1.842-.716zm.953-4.716h1.938l-2.668 2.166h-1.431zm8.342 8.166l-1.747 1.7v2.416h-1.525V28.421h1.525v7.932l4.59-4.4h1.842l-3.542 3.651 3.891 5.182h-1.874zm9.16-4.799a3.748 3.748 0 012.684.9 3.578 3.578 0 01.921 2.683v5.332h-1.445v-1.166a2.425 2.425 0 01-1.08.933 4.018 4.018 0 01-1.684.333 3.407 3.407 0 01-2.271-.717 2.369 2.369 0 01-.842-1.883 2.393 2.393 0 01.81-1.883 3.888 3.888 0 012.573-.7h2.414v-.317a2.1 2.1 0 00-.572-1.583 2.33 2.33 0 00-1.684-.55 4.419 4.419 0 00-1.461.25 4.126 4.126 0 00-1.207.7l-.635-1.2a4.6 4.6 0 011.556-.85 6.553 6.553 0 011.923-.282zm-.349 7.782a2.646 2.646 0 001.509-.417 2.242 2.242 0 00.921-1.15v-1.233h-2.351c-1.286 0-1.938.45-1.938 1.366a1.23 1.23 0 00.492 1.05 2.209 2.209 0 001.366.384zm1.429-11.148h1.938l-2.668 2.166h-1.426zm6.563 4.932a2.631 2.631 0 011.171-1.166 4.1 4.1 0 011.89-.4v1.55a2.038 2.038 0 00-.349-.017 2.464 2.464 0 00-1.938.767 3.171 3.171 0 00-.715 2.216v4.4h-1.52v-8.832h1.461zm9.179-1.566a3.363 3.363 0 012.557.983 3.952 3.952 0 01.937 2.849v5.082h-1.525v-4.9a2.781 2.781 0 00-.588-1.933 2.161 2.161 0 00-1.684-.65 2.57 2.57 0 00-1.954.75 3.082 3.082 0 00-.715 2.183v4.549h-1.523v-8.832h1.461v1.333a3.068 3.068 0 011.255-1.05 4.064 4.064 0 011.779-.364zm13.356.084l-4.084 9.715a4.472 4.472 0 01-1.255 1.9 2.822 2.822 0 01-1.747.55 3.217 3.217 0 01-1.191-.217 2.328 2.328 0 01-.969-.6l.651-1.2a2.064 2.064 0 001.509.65 1.329 1.329 0 00.921-.317 2.562 2.562 0 00.683-1.05l.27-.617-3.716-8.815h1.588l2.94 7.066 2.9-7.065zM14.979 7.651V.544h-8.45v6.735h-6.53v8.724h6.53v7.105h8.45v-6.735h6.528V7.651zM1.926 9.267h6.528V2.532h4.6v5.15a7.233 7.233 0 00-6.45 6.333H1.929zm11.025.424a5.282 5.282 0 01-4.394 4.266 5.278 5.278 0 014.394-4.266m6.629 4.692h-6.528v6.736h-4.6v-5.147a7.246 7.246 0 006.453-6.334h4.674zM31.423.949h5.4l5.983 9.29 5.98-9.29h5.4v21.985h-4.98V8.587l-6.4 9.392h-.13l-6.343-9.3v14.254h-4.91zM56.464 18.09v-.045c0-3.69 2.892-5.381 7.019-5.381a12.687 12.687 0 014.264.691v-.282c0-1.986-1.268-3.087-3.741-3.087a13.016 13.016 0 00-4.816.928L57.956 7.27a15.754 15.754 0 016.767-1.362c2.694 0 4.641.689 5.879 1.889a7.233 7.233 0 011.889 5.373v9.767h-4.776v-1.824a6.792 6.792 0 01-5.267 2.146c-3.29-.003-5.984-1.835-5.984-5.169m11.343-1.1v-.841a7.922 7.922 0 00-3.151-.636c-2.107 0-3.421.831-3.421 2.343v.061c0 1.271 1.113 2.033 2.705 2.033 2.306 0 3.866-1.22 3.866-2.959m7.425 9.284l1.692-3.589a11.481 11.481 0 005.88 1.536c3.373 0 4.98-1.554 4.98-4.582v-.819a6.934 6.934 0 01-5.697 2.743 7.521 7.521 0 01-7.732-7.851v-.087a7.522 7.522 0 017.732-7.833 7.151 7.151 0 015.616 2.5V6.108h4.941v13.033c0 3.006-.728 5.219-2.208 6.639-1.626 1.553-4.124 2.246-7.506 2.246a16.938 16.938 0 01-7.7-1.751m12.554-12.562v-.087a3.973 3.973 0 00-4.265-3.883 3.939 3.939 0 00-4.219 3.883v.087a3.926 3.926 0 004.219 3.892 3.983 3.983 0 004.265-3.892M95.56 0h5.192v4.258H95.56zm.118 6.106h4.957v16.828h-4.957zm6.614 14.607l2.1-3.147a10.152 10.152 0 005.5 2.01c1.427 0 2.077-.494 2.077-1.264v-.046c0-1.054-1.688-1.38-3.6-1.962-2.438-.681-5.2-1.792-5.2-5.058v-.063c0-3.417 2.859-5.326 6.378-5.326a12.219 12.219 0 016.487 1.944l-1.893 3.291a10.5 10.5 0 00-4.711-1.55c-1.2 0-1.812.482-1.812 1.135v.09c0 .94 1.657 1.372 3.548 1.99 2.432.8 5.264 1.925 5.264 5.016v.049c0 3.751-2.894 5.439-6.664 5.439a12.408 12.408 0 01-7.474-2.548m16.544-2.562v-7.967h-2.081V6.11h2.081V1.793h4.959V6.11h4.077v4.078h-4.08v7.188c0 1.092.475 1.654 1.572 1.654a5.263 5.263 0 002.442-.612v3.837a7.5 7.5 0 01-3.906.966c-3.029 0-5.067-1.163-5.067-5.067m11.064-12.048h4.947v3.385c1-2.325 2.625-3.835 5.554-3.7v4.975h-.269c-3.29 0-5.285 1.939-5.285 5.946v6.22h-4.947zm10.102 11.984v-.045c0-3.69 2.905-5.381 7.041-5.381a12.547 12.547 0 014.24.691v-.282c0-1.986-1.26-3.087-3.73-3.087a12.965 12.965 0 00-4.814.928l-1.222-3.644a15.661 15.661 0 016.755-1.362c2.689 0 4.642.689 5.878 1.889a7.234 7.234 0 011.878 5.373v9.767h-4.77v-1.824a6.769 6.769 0 01-5.27 2.146c-3.286-.003-5.986-1.835-5.986-5.169m11.345-1.1v-.841a7.84 7.84 0 00-3.145-.635c-2.1 0-3.408.831-3.408 2.343v.061c0 1.271 1.12 2.033 2.7 2.033 2.312 0 3.858-1.22 3.858-2.959" fill="#ed1c24"/><path d="M159.992 23.195h5.255v-5.19h-5.255zm16.353.389a8.755 8.755 0 007.1-3.178l-2.887-2.919a5.507 5.507 0 01-3.99 1.849c-2.692 0-4.411-2.141-4.411-4.8v-.065c0-2.562 1.752-4.735 4.216-4.735a5.079 5.079 0 013.957 1.914l3.016-3.243a8.546 8.546 0 00-6.941-2.919 8.925 8.925 0 00-9.114 9.049v.065a8.876 8.876 0 009.049 8.984m8.54-.389h15.115v-3.99h-9.016l9.016-9.925v-3.47h-14.823v3.99h8.693l-8.985 9.925z" fill="#8dc741"/></symbol><symbol id="logo_sticky-header" viewBox="0 0 327.595 43"><path d="M19.915 15.449V6H8.681v8.955H0v11.6h8.681v9.446h11.234v-8.955h8.679v-11.6zM2.561 17.598h8.679V8.643h6.113v6.846a9.616 9.616 0 00-8.576 8.419H2.561zm14.658.564a7.023 7.023 0 01-5.841 5.672 7.017 7.017 0 015.841-5.672m8.814 6.238h-8.679v8.955H11.24v-6.843a9.634 9.634 0 008.579-8.421h6.21z" fill="#fff"/><g fill="#fff"><text transform="translate(49.595 25)" font-size="14" font-family="Montserrat-Regular, Montserrat" opacity=".75"><tspan x="0" y="14">Havl&#xED;&#x10D;k&#x16F;v Brod</tspan></text><text transform="translate(49.595)" font-size="24" font-family="Montserrat-Bold, Montserrat" font-weight="700"><tspan x="0" y="23">L&#xE9;k&#xE1;rna Metro H&#xE1;je</tspan></text></g></symbol><symbol id="mail-white" viewBox="0 0 16.484 16"><path d="M8.271 16C2.9 16 0 12.648 0 8.328 0 3.707 3.271 0 9.118 0c4.268 0 7.365 2.773 7.365 6.594 0 5.984-7.095 7.563-6.739 4.15a3.133 3.133 0 01-2.784 1.617c-1.728 0-2.8-1.265-2.8-3.3 0-3.052 2.006-5.631 4.381-5.631a2.245 2.245 0 012.251 1.525l.319-1.121h1.606c-.168.571-1.594 5.856-1.594 5.856-.445 1.831.927 1.863 2.144.891 2.286-1.772 2.4-6.406-.685-8.339C9.269.255 1.731 1.484 1.731 8.212c0 3.854 2.713 6.443 6.751 6.443a9.227 9.227 0 005.01-1.338l.808 1.166A11.716 11.716 0 018.27 16zm-1.61-9.825a7.007 7.007 0 00-.808 3.038c0 2.479 2.419 2.5 3.607.164a7.443 7.443 0 00.8-3.111c0-2-2.4-2.359-3.6-.092z" fill="#fff"/></symbol><symbol id="ocuswiss_logo"><path fill="#004372" d="M0 0h182.707v60.688H0z"/><g clip-path="url(#a)"><path d="M39.71 39.374a12.247 12.247 0 01-12.385 12.174 12.72 12.72 0 01-9.184-4.152 11.739 11.739 0 01-2.956-8.128 12.263 12.263 0 0124.525.106zm-20.971-.071a8.384 8.384 0 002.6 6.4 8.874 8.874 0 006.017 2.5 8.851 8.851 0 10-8.621-8.9zm35.185 2.144c-1.583-1.9-2.6-2.5-4.258-2.5a4.529 4.529 0 00-4.5 4.75 4.464 4.464 0 004.434 4.785c1.689 0 2.674-.6 4.328-2.569v4.539a8.1 8.1 0 01-4.187 1.091 7.786 7.786 0 01-8.058-7.811 7.888 7.888 0 018.093-7.847 8.537 8.537 0 014.152 1.021zm5.698 3.347a4.534 4.534 0 00.422 2.357 2.969 2.969 0 004.962 0 4.539 4.539 0 00.422-2.357v-8.515h3.413v8.585c0 2.323-.422 3.589-1.548 4.821a7.028 7.028 0 01-9.536 0c-1.126-1.232-1.548-2.5-1.548-4.821v-8.585h3.413z" fill="#fff"/></g><path d="M83.216 34.854a4.288 4.288 0 00-3.405-1.7c-1.671 0-2.964 1.04-2.964 2.333 0 1.135.725 1.734 3.185 2.648a12.526 12.526 0 014.193 2.112 5.532 5.532 0 011.86 4.414c0 4.13-2.964 6.936-7.315 6.936a8.25 8.25 0 01-7.22-4l2.648-2.554a4.882 4.882 0 004.414 2.806 3.034 3.034 0 003.247-2.964 2.5 2.5 0 00-1.135-2.112 13.166 13.166 0 00-2.932-1.261c-3.783-1.355-5.17-2.9-5.17-5.675 0-3.531 2.775-6.116 6.558-6.116a9.206 9.206 0 016.18 2.333zm13.84 9.522l5.139-14.5h2.239l4.887 14.5 5.044-14.313h4.317l-7.913 21.438H107.9l-4.666-13.746-4.918 13.746h-2.869l-7.441-21.438h4.319zm28.843 6.714h-4.1V30.062h4.1zm15.735-16.236a4.288 4.288 0 00-3.4-1.7c-1.671 0-2.963 1.04-2.963 2.333 0 1.135.725 1.734 3.184 2.648a12.526 12.526 0 014.193 2.112 5.532 5.532 0 011.86 4.414c0 4.13-2.964 6.936-7.315 6.936a8.25 8.25 0 01-7.22-4l2.648-2.554a4.882 4.882 0 004.414 2.806 3.034 3.034 0 003.247-2.964 2.5 2.5 0 00-1.135-2.112 13.167 13.167 0 00-2.932-1.261c-3.783-1.355-5.17-2.9-5.17-5.675 0-3.531 2.775-6.116 6.558-6.116a9.206 9.206 0 016.18 2.333zm17.403 0a4.287 4.287 0 00-3.4-1.7c-1.671 0-2.964 1.04-2.964 2.333 0 1.135.725 1.734 3.184 2.648a12.521 12.521 0 014.193 2.112 5.532 5.532 0 011.86 4.414c0 4.13-2.964 6.936-7.314 6.936a8.249 8.249 0 01-7.22-4l2.648-2.554a4.881 4.881 0 004.414 2.806 3.034 3.034 0 003.247-2.964 2.5 2.5 0 00-1.135-2.112 13.169 13.169 0 00-2.932-1.261c-3.783-1.355-5.17-2.9-5.17-5.675 0-3.531 2.774-6.116 6.557-6.116a9.2 9.2 0 016.18 2.333zM16.904 22.634h-2.03V12.218h3.048a3.716 3.716 0 012.748.8 3.365 3.365 0 011.062 2.514 3.482 3.482 0 01-.843 2.327 3.442 3.442 0 01-2.67.921h-1.315zm.827-5.622c1.265 0 1.905-.5 1.905-1.5a1.508 1.508 0 00-.531-1.2 2.42 2.42 0 00-1.5-.328h-.7v3.03zm6.794-1.14v1.031a2.126 2.126 0 011.967-1.249 1.878 1.878 0 01.827.172l-.264 1.763a1.788 1.788 0 00-2.108.25 2.134 2.134 0 00-.422 1.55v3.248h-1.89v-6.765zm4.965 3.685c.047 1.171.624 1.812 1.655 1.812a1.761 1.761 0 001.608-.906l1.749.281a3.318 3.318 0 01-3.311 2.108 3.4 3.4 0 01-3.638-3.591 3.353 3.353 0 013.545-3.607c2.139 0 3.467 1.39 3.467 3.654v.25zm3.263-1.2a1.625 1.625 0 00-3.2 0zm4.841-2.485v.781a2.559 2.559 0 012.061-1 2.262 2.262 0 012.108 1.234 2.486 2.486 0 012.217-1.234 2.178 2.178 0 011.89.969 2.969 2.969 0 01.359 1.64v4.372h-1.89v-3.7a2.414 2.414 0 00-.156-1.078 1.018 1.018 0 00-.953-.593 1.2 1.2 0 00-1.109.672 2.75 2.75 0 00-.2 1.234v3.466h-1.89v-3.593a2.778 2.778 0 00-.141-1.124 1.1 1.1 0 00-1.015-.656 1.246 1.246 0 00-1.062.609 2.6 2.6 0 00-.219 1.3v3.466h-1.89v-6.765zm12.211-2.858a1.14 1.14 0 11-1.14-1.14 1.146 1.146 0 011.14 1.14zm-.2 9.619h-1.89v-6.761h1.89zm3.37-2.935c0 1.016.469 1.546 1.39 1.546.906 0 1.374-.53 1.374-1.546v-3.826h1.89v4.138c0 1.827-1.171 2.842-3.264 2.842s-3.279-1.015-3.279-2.842v-4.138h1.89zm8.058-3.826v.781a2.559 2.559 0 012.061-1 2.262 2.262 0 012.11 1.236 2.486 2.486 0 012.217-1.234 2.179 2.179 0 011.89.969 2.969 2.969 0 01.359 1.64v4.372h-1.89v-3.7a2.414 2.414 0 00-.156-1.078 1.018 1.018 0 00-.953-.593 1.2 1.2 0 00-1.109.672 2.75 2.75 0 00-.2 1.234v3.466h-1.89v-3.595a2.778 2.778 0 00-.141-1.124 1.1 1.1 0 00-1.015-.656 1.246 1.246 0 00-1.062.609 2.6 2.6 0 00-.219 1.3v3.466h-1.89v-6.765z" fill="#fff"/></symbol><symbol id="phone-black" viewBox="0 0 14.667 16"><path d="M13.26 15.769C8.349 18.014.725 3.2 5.526.693L6.931 0l2.328 4.545-1.389.684c-1.459.783 1.58 6.72 3.073 6 .061-.027 1.371-.671 1.376-.674l2.348 4.53c-.006-.002-1.326.648-1.407.684zM6.968 14.26c-.984.715-2.337.78-2.749.071a2.686 2.686 0 01-.085-1.862A3.471 3.471 0 003.937 10C3.125 8.611 1.339 8.673 0 9.549l.637.975a2.288 2.288 0 011.663-.406c1.1.259.767 1.684.687 2.153a3.7 3.7 0 00.225 2.645c.829 1.429 3.053 1.384 4.557.211a13.33 13.33 0 01-.8-.867z"/></symbol><symbol id="phone-white" viewBox="0 0 14.667 16"><path d="M13.26 15.769C8.349 18.014.725 3.2 5.526.693L6.931 0l2.328 4.545-1.389.684c-1.459.783 1.58 6.72 3.073 6 .061-.027 1.371-.671 1.376-.674l2.348 4.53c-.006-.002-1.326.648-1.407.684zM6.968 14.26c-.984.715-2.337.78-2.749.071a2.686 2.686 0 01-.085-1.862A3.471 3.471 0 003.937 10C3.125 8.611 1.339 8.673 0 9.549l.637.975a2.288 2.288 0 011.663-.406c1.1.259.767 1.684.687 2.153a3.7 3.7 0 00.225 2.645c.829 1.429 3.053 1.384 4.557.211a13.33 13.33 0 01-.8-.867z" fill="#fff"/></symbol><symbol id="up_logo"><path d="M0 0v65h65V0z" fill="#5f5f5f"/><path d="M25.762 32.363c0 3.392-.733 5.959-4.492 5.959-4.217 0-4.676-3.025-4.676-5.5V13.66l-5.409 1.192v18.794c0 7.151 4.951 9.9 9.81 9.9 6.326 0 10.085-4.034 10.085-9.076V13.66l-5.41 1.192v17.511zm18.977-10.91a10.123 10.123 0 00-5.867 1.834v-3.026l-5.226 1.284v28.7l5.226-1.192v-7.339a9.917 9.917 0 005.867 1.834 10.767 10.767 0 0010.543-11c0-6.048-4.676-11.095-10.543-11.095zm-.275 17.327a6.09 6.09 0 01-5.959-6.326 5.97 5.97 0 1111.918 0 6.09 6.09 0 01-5.959 6.326z" fill="#fff"/></symbol><symbol id="warning"><path d="M16 0a16 16 0 1016 16A16 16 0 0016 0zm-2 6.667h4L16.667 20h-1.334zm2 19A1.667 1.667 0 1117.667 24 1.667 1.667 0 0116 25.667z"/></symbol><symbol id="youtube" viewBox="0 0 50 50"><g transform="translate(-466 -7396)"><circle cx="25" cy="25" r="25" transform="translate(466 7396)" fill="#fff"/><path d="M491 7429.142c-3.077 0-5.922-.069-7.612-.185-2-.137-3.053-.706-3.645-1.965-.603-1.276-.728-3.32-.743-6.42.015-3.1.141-5.149.742-6.427.592-1.255 1.647-1.823 3.643-1.96 1.689-.116 4.535-.185 7.615-.185s5.924.069 7.615.185c2 .137 3.054.706 3.646 1.965.6 1.276.726 3.321.742 6.422-.015 3.1-.142 5.149-.743 6.425-.592 1.255-1.647 1.823-3.644 1.96-1.695.116-4.542.185-7.616.185zm-3.428-12.586v8.03l8.428-4.022z" fill="#e1251e"/></g></symbol></svg>