<svg version="1.0" xmlns="http://www.w3.org/2000/svg" width="981.333" height="981.333" viewBox="0 0 736 736"><path d="M230.1 106.2c0 58.5 0 107.9-.1 109.8v3.6l-106.5-.1H17l.2 142.4.3 142.5h105.7c58.1.1 105.9.4 106.3.7.3.4.6 52.5.6 115.8V736l137.7-.2 137.7-.3.2-105.5c.1-58 .2-107.3.3-109.6v-4h106.5l106.5.1v-285H615.5c-64.7 0-103.5.4-103.5.9 0 .6-.5.5-1.1-.1-.6-.6-1.7-.9-2.4-.7-.7.3-1.6.1-2-.5-.3-.6-.6-52.8-.6-116.1V0H230.1v106.2zm182.2-41.3l30.7.1v168l-2.2.2c-4.5.3-8.1.8-16.8 2.3-1.9.3-6.2 1.2-9.5 2.1-3.3.8-6.9 1.6-8.1 1.8-4.3.8-26.2 8.5-33.4 11.7-9.4 4.2-27.6 13.5-29 14.9-.3.3-3.9 2.7-8 5.4s-7.6 5.3-7.8 5.8c-.2.4-1 .8-1.8.8s-1.4.4-1.4 1c0 .5-.4 1-1 1-.5 0-1.8.8-2.8 1.7-1 1-4 3.6-6.8 5.8-5 4.1-22.9 21.8-27.4 27.1-1.3 1.6-4.6 5.8-7.3 9.4l-6 8c-5.2 6.5-23.5 39-22 39 .3 0 .1.6-.5 1.2-1.6 1.9-10.3 25.5-11.8 32-.2 1-.6 2.6-.9 3.5-1.2 4.8-2.6 10.7-3.1 13.9-.3 2-.8 4.6-1 5.8-.3 1.1-.7 4.1-1.1 6.6-.3 2.5-.9 4.7-1.3 5-.5.3-34.9.5-76.6.4H79.7l.2-6.9c.1-3.8.5-7.3.7-7.7.3-.4.2-.8-.3-.8-.9 0-.8-9.3.1-11.6.3-.8.2-1.4-.2-1.4-.8 0-.6-17.5.2-19.6.3-.8.2-1.4-.2-1.4-.6 0-.7-22.4-.2-25.5.2-.6.2-1.4.1-1.9-.3-1.3-.3-28-.1-29.1.1-.6.1-1.5 0-2-.5-2.5-.2-24.4.4-25.4.4-.6.4-1.1-.1-1.1-.9 0-.7-18.9.2-19.8.3-.4 48.2-.7 106.3-.7h105.7l.3-109.7.2-109.7 3.3-.3c1.7-.2 21.7-.2 44.2-.1 22.6.1 54.8.2 71.8.2zm243.2 232.3c.9.8 1.1 30.8.3 30.8-.4 0-.5.6-.2 1.4.9 2.3 1 11.6.1 11.6-.5 0-.5.5-.2 1 .9 1.4.9 17.6 0 18.9-.3.6-.2 1.1.2 1.1.5 0 .6 3.1.3 7-.3 3.8-.3 7 0 7 .6 0 .3 9.8-.4 11.6-.3.8-.2 1.4.2 1.4.8 0 .6 17.5-.2 19.7-.3.7-.2 1.3.2 1.3s.7 5.9.7 13c0 7.2-.4 13-.8 13-.5 0-.5.4-.2 1 .8 1.3.8 13 0 13.8-.3.3-48.2.6-106.3.7H443.5l-.3 109.8L443 671H293v-4.8c-.3-30.8 0-162.5.2-162.8.2-.2 2.4-.6 4.9-.9 2.4-.2 5.5-.6 6.9-.9 1.4-.2 4.4-.7 6.7-1 11.7-1.9 39.8-10.3 49.8-15 16.6-7.8 34.3-17.3 36.5-19.6.3-.3 3.4-2.5 7-5 18.2-12.5 35.3-28.8 51.8-49.6 1.3-1.6 3.1-4.1 4-5.7.9-1.5 2-2.7 2.4-2.7.4 0 .8-.4.8-.9s2.1-4.2 4.8-8.3c2.6-4 5.2-8.2 5.9-9.3 1.2-2.1 9.5-18.7 9.8-19.5.1-.3.9-2.3 1.9-4.5 6.9-15.7 14.4-42.2 16.1-57.4.3-2.5 1-4.9 1.4-5.5 1-1.2 150.5-1.5 151.6-.4zm-216.9 6c-1.8 13.2-13.1 40.9-23.3 56.9-23 36-60.7 63.3-102.3 73.9-4.7 1.2-10.4 2.4-12.6 2.7l-4.2.5 1.9-7.9c1-4.3 3-11.2 4.4-15.3 1.4-4.1 2.7-8 2.9-8.5.2-.9 3.3-7.7 7.2-16 .8-1.7 2-3.9 2.7-4.9.6-1.1 2.7-4.5 4.6-7.5 9.8-16.2 26.5-34.3 43-46.7 7.1-5.2 28.2-17.9 30.1-17.9.3 0 1-.3 1.5-.6 1.6-1.1 15.7-6.5 19-7.4 1.7-.5 3.3-.9 3.8-1 .4-.2.8-.3 1-.5.1-.1.9-.3 1.7-.5.8-.1 3.3-.8 5.5-1.4 2.2-.5 5.8-1.3 8-1.7 2.2-.3 4.2-.8 4.4-1 1.1-1.1 1.3 0 .7 4.8z"/></svg>