<svg xmlns="http://www.w3.org/2000/svg" width="123.812" height="75.891"><path d="M46.923 32.952a4.008 4.008 0 00-4.034 3.334h7.835a3.6 3.6 0 00-3.801-3.334zm-20.937.834a4.651 4.651 0 000 9.3 4.651 4.651 0 000-9.3z" fill="#5f5f5f"/><path d="M82.531 29.352c-4.216 0-7.485 1.68-8.02 6.042C73.178 15.628 57.586 0 37.486 0A37.941 37.941 0 002.36 23.61l13.453.005-.7 4.54H4.543v4.8h9.573l-.733 4.362h-8.84v2.8c0 1.7.733 2.5 2.137 2.5h9.035l-.733 4.54H4.97a7.923 7.923 0 01-1.388-.123 4.485 4.485 0 01-2.805-1.583 3.7 3.7 0 01-.678-1.4c-.055-.224-.062-.237-.1-.412.071.564.191 1.323.246 1.6.3 1.583.691 2.919.726 3.016a38.008 38.008 0 0073.422-1.1h-5.1v-9.264c0-2.5-.973-4.1-3.434-4.1s-3.434 1.6-3.434 4.1v9.269h-5.1V36.623c0-5.036 3.668-7.268 8.539-7.268s8.536 2.234 8.536 7.268V47.16h5.143v-9.269c0-2.5.668-4.1 3.1-4.1a5.75 5.75 0 012.033.4l.973-4.469a24.4 24.4 0 00-3.117-.366zm-46.771 8.03c0 6.369-3.768 10.1-10 10.1-5.769 0-9.671-3.869-9.671-9.08 0-5.435 3.7-9.08 9.236-9.08a7.345 7.345 0 015.335 2v-7.706h5.1zm12.868 6.269a9.992 9.992 0 004.2-1.035l-.425 4.034a13.465 13.465 0 01-5 .833c-5.87 0-10-3.434-10-9.269 0-5.069 3.7-8.87 9.369-8.87 6.4 0 9.6 4.067 9.47 10.335h-13.22c.5 2.89 3.233 3.976 5.6 3.976zm45.471-14.299c-5.669 0-9.369 3.814-9.369 8.87 0 5.837 4.135 9.269 10 9.269a13.465 13.465 0 005-.833l.425-4.034a9.976 9.976 0 01-4.19 1.035c-2.367 0-5.1-1.1-5.6-3.969h13.206c.134-6.271-3.067-10.338-9.472-10.338zm-3.856 6.937a4.008 4.008 0 014.034-3.334 3.6 3.6 0 013.8 3.334zm28.464-12.673v7.735a7.359 7.359 0 00-5.335-2c-5.536 0-9.236 3.635-9.236 9.08 0 5.189 3.892 9.08 9.671 9.08 6.236 0 10-3.736 10-10.1V23.616zM114.04 43.09a4.422 4.422 0 01-4.569-4.667 4.6 4.6 0 114.569 4.667z" fill="#5f5f5f"/></svg>