<svg xmlns="http://www.w3.org/2000/svg" viewBox="0 0 50 50"><g transform="translate(-311 -7249)"><circle cx="25" cy="25" r="25" transform="translate(311 7249)" fill="#fff"/><path d="M336 7286c-3.224 0-3.652-.014-4.947-.072-4.366-.2-6.78-2.615-6.98-6.98-.059-1.294-.073-1.723-.073-4.948s.014-3.656.073-4.948c.2-4.366 2.614-6.78 6.98-6.98 1.295-.058 1.723-.072 4.947-.072s3.658.014 4.949.073c4.369.2 6.783 2.614 6.979 6.98.059 1.295.072 1.723.072 4.947s-.014 3.658-.073 4.948c-.2 4.365-2.611 6.779-6.979 6.98-1.294.059-1.723.072-4.948.072zm0-17.317a6.162 6.162 0 106.162 6.161 6.168 6.168 0 00-6.162-6.161zm6.406-1.683a1.44 1.44 0 101.439 1.44 1.442 1.442 0 00-1.439-1.44zM336 7278.845a4 4 0 114-4 4 4 0 01-4 4z" fill="#ed1c24"/></g></svg>