<svg xmlns="http://www.w3.org/2000/svg" width="200" height="44.118"><path d="M95.127 29.121h1.588v10.215h6.019v1.45h-7.607zm16.453 7.298c0 .117-.016.283-.032.483h-6.829a2.777 2.777 0 00.985 1.866 2.993 2.993 0 002.065.717 3.051 3.051 0 002.43-1.066l.842 1.033a3.81 3.81 0 01-1.414 1.066 4.706 4.706 0 01-1.906.367 4.771 4.771 0 01-2.366-.583 3.861 3.861 0 01-1.588-1.6 4.721 4.721 0 01-.572-2.333 4.87 4.87 0 01.556-2.316 3.973 3.973 0 011.509-1.6 3.945 3.945 0 012.16-.583 3.945 3.945 0 012.16.583 4.122 4.122 0 011.477 1.6 5.159 5.159 0 01.523 2.366zm-4.161-3.2a2.545 2.545 0 00-1.826.7 2.869 2.869 0 00-.874 1.833h5.4a2.811 2.811 0 00-.858-1.816 2.527 2.527 0 00-1.842-.716zm.953-4.716h1.938l-2.668 2.166h-1.431zm8.342 8.166l-1.747 1.7v2.416h-1.525V28.421h1.525v7.932l4.59-4.4h1.842l-3.542 3.651 3.891 5.182h-1.874zm9.16-4.799a3.748 3.748 0 012.684.9 3.578 3.578 0 01.921 2.683v5.332h-1.445v-1.166a2.425 2.425 0 01-1.08.933 4.018 4.018 0 01-1.684.333 3.407 3.407 0 01-2.271-.717 2.369 2.369 0 01-.842-1.883 2.393 2.393 0 01.81-1.883 3.888 3.888 0 012.573-.7h2.414v-.317a2.1 2.1 0 00-.572-1.583 2.33 2.33 0 00-1.684-.55 4.419 4.419 0 00-1.461.25 4.126 4.126 0 00-1.207.7l-.635-1.2a4.6 4.6 0 011.556-.85 6.553 6.553 0 011.923-.282zm-.349 7.782a2.646 2.646 0 001.509-.417 2.242 2.242 0 00.921-1.15v-1.233h-2.351c-1.286 0-1.938.45-1.938 1.366a1.23 1.23 0 00.492 1.05 2.209 2.209 0 001.366.384zm1.429-11.148h1.938l-2.668 2.166h-1.426zm6.563 4.932a2.631 2.631 0 011.171-1.166 4.1 4.1 0 011.89-.4v1.55a2.038 2.038 0 00-.349-.017 2.464 2.464 0 00-1.938.767 3.171 3.171 0 00-.715 2.216v4.4h-1.52v-8.832h1.461zm9.179-1.566a3.363 3.363 0 012.557.983 3.952 3.952 0 01.937 2.849v5.082h-1.525v-4.9a2.781 2.781 0 00-.588-1.933 2.161 2.161 0 00-1.684-.65 2.57 2.57 0 00-1.954.75 3.082 3.082 0 00-.715 2.183v4.549h-1.523v-8.832h1.461v1.333a3.068 3.068 0 011.255-1.05 4.064 4.064 0 011.779-.364zm13.356.084l-4.084 9.715a4.472 4.472 0 01-1.255 1.9 2.822 2.822 0 01-1.747.55 3.217 3.217 0 01-1.191-.217 2.328 2.328 0 01-.969-.6l.651-1.2a2.064 2.064 0 001.509.65 1.329 1.329 0 00.921-.317 2.562 2.562 0 00.683-1.05l.27-.617-3.716-8.815h1.588l2.94 7.066 2.9-7.065zM14.979 7.651V.544h-8.45v6.735h-6.53v8.724h6.53v7.105h8.45v-6.735h6.528V7.651zM1.926 9.267h6.528V2.532h4.6v5.15a7.233 7.233 0 00-6.45 6.333H1.929zm11.025.424a5.282 5.282 0 01-4.394 4.266 5.278 5.278 0 014.394-4.266m6.629 4.692h-6.528v6.736h-4.6v-5.147a7.246 7.246 0 006.453-6.334h4.674zM31.423.949h5.4l5.983 9.29 5.98-9.29h5.4v21.985h-4.98V8.587l-6.4 9.392h-.13l-6.343-9.3v14.254h-4.91zM56.464 18.09v-.045c0-3.69 2.892-5.381 7.019-5.381a12.687 12.687 0 014.264.691v-.282c0-1.986-1.268-3.087-3.741-3.087a13.016 13.016 0 00-4.816.928L57.956 7.27a15.754 15.754 0 016.767-1.362c2.694 0 4.641.689 5.879 1.889a7.233 7.233 0 011.889 5.373v9.767h-4.776v-1.824a6.792 6.792 0 01-5.267 2.146c-3.29-.003-5.984-1.835-5.984-5.169m11.343-1.1v-.841a7.922 7.922 0 00-3.151-.636c-2.107 0-3.421.831-3.421 2.343v.061c0 1.271 1.113 2.033 2.705 2.033 2.306 0 3.866-1.22 3.866-2.959m7.425 9.284l1.692-3.589a11.481 11.481 0 005.88 1.536c3.373 0 4.98-1.554 4.98-4.582v-.819a6.934 6.934 0 01-5.697 2.743 7.521 7.521 0 01-7.732-7.851v-.087a7.522 7.522 0 017.732-7.833 7.151 7.151 0 015.616 2.5V6.108h4.941v13.033c0 3.006-.728 5.219-2.208 6.639-1.626 1.553-4.124 2.246-7.506 2.246a16.938 16.938 0 01-7.7-1.751m12.554-12.562v-.087a3.973 3.973 0 00-4.265-3.883 3.939 3.939 0 00-4.219 3.883v.087a3.926 3.926 0 004.219 3.892 3.983 3.983 0 004.265-3.892M95.56 0h5.192v4.258H95.56zm.118 6.106h4.957v16.828h-4.957zm6.614 14.607l2.1-3.147a10.152 10.152 0 005.5 2.01c1.427 0 2.077-.494 2.077-1.264v-.046c0-1.054-1.688-1.38-3.6-1.962-2.438-.681-5.2-1.792-5.2-5.058v-.063c0-3.417 2.859-5.326 6.378-5.326a12.219 12.219 0 016.487 1.944l-1.893 3.291a10.5 10.5 0 00-4.711-1.55c-1.2 0-1.812.482-1.812 1.135v.09c0 .94 1.657 1.372 3.548 1.99 2.432.8 5.264 1.925 5.264 5.016v.049c0 3.751-2.894 5.439-6.664 5.439a12.408 12.408 0 01-7.474-2.548m16.544-2.562v-7.967h-2.081V6.11h2.081V1.793h4.959V6.11h4.077v4.078h-4.08v7.188c0 1.092.475 1.654 1.572 1.654a5.263 5.263 0 002.442-.612v3.837a7.5 7.5 0 01-3.906.966c-3.029 0-5.067-1.163-5.067-5.067m11.064-12.048h4.947v3.385c1-2.325 2.625-3.835 5.554-3.7v4.975h-.269c-3.29 0-5.285 1.939-5.285 5.946v6.22h-4.947zm10.102 11.984v-.045c0-3.69 2.905-5.381 7.041-5.381a12.547 12.547 0 014.24.691v-.282c0-1.986-1.26-3.087-3.73-3.087a12.965 12.965 0 00-4.814.928l-1.222-3.644a15.661 15.661 0 016.755-1.362c2.689 0 4.642.689 5.878 1.889a7.234 7.234 0 011.878 5.373v9.767h-4.77v-1.824a6.769 6.769 0 01-5.27 2.146c-3.286-.003-5.986-1.835-5.986-5.169m11.345-1.1v-.841a7.84 7.84 0 00-3.145-.635c-2.1 0-3.408.831-3.408 2.343v.061c0 1.271 1.12 2.033 2.7 2.033 2.312 0 3.858-1.22 3.858-2.959m8.643 6.203h5.255v-5.19h-5.255zm16.353.389a8.755 8.755 0 007.1-3.178l-2.887-2.919a5.507 5.507 0 01-3.99 1.849c-2.692 0-4.411-2.141-4.411-4.8v-.065c0-2.562 1.752-4.735 4.216-4.735a5.079 5.079 0 013.957 1.914l3.016-3.243a8.546 8.546 0 00-6.941-2.919 8.925 8.925 0 00-9.114 9.049v.065a8.876 8.876 0 009.049 8.984m8.54-.389h15.115v-3.99h-9.016l9.016-9.925v-3.47h-14.823v3.99h8.693l-8.985 9.925z" fill="#fff"/></svg>