<svg xmlns="http://www.w3.org/2000/svg" viewBox="0 0 16.484 16"><path d="M8.271 16C2.9 16 0 12.648 0 8.328 0 3.707 3.271 0 9.118 0c4.268 0 7.365 2.773 7.365 6.594 0 5.984-7.095 7.563-6.739 4.15a3.133 3.133 0 01-2.784 1.617c-1.728 0-2.8-1.265-2.8-3.3 0-3.052 2.006-5.631 4.381-5.631a2.245 2.245 0 012.251 1.525l.319-1.121h1.606c-.168.571-1.594 5.856-1.594 5.856-.445 1.831.927 1.863 2.144.891 2.286-1.772 2.4-6.406-.685-8.339C9.269.255 1.731 1.484 1.731 8.212c0 3.854 2.713 6.443 6.751 6.443a9.227 9.227 0 005.01-1.338l.808 1.166A11.716 11.716 0 018.27 16zm-1.61-9.825a7.007 7.007 0 00-.808 3.038c0 2.479 2.419 2.5 3.607.164a7.443 7.443 0 00.8-3.111c0-2-2.4-2.359-3.6-.092z" fill="#fff"/></svg>