<svg xmlns="http://www.w3.org/2000/svg" viewBox="0 0 14.667 16"><path d="M13.26 15.769C8.349 18.014.725 3.2 5.526.693L6.931 0l2.328 4.545-1.389.684c-1.459.783 1.58 6.72 3.073 6 .061-.027 1.371-.671 1.376-.674l2.348 4.53c-.006-.002-1.326.648-1.407.684zM6.968 14.26c-.984.715-2.337.78-2.749.071a2.686 2.686 0 01-.085-1.862A3.471 3.471 0 003.937 10C3.125 8.611 1.339 8.673 0 9.549l.637.975a2.288 2.288 0 011.663-.406c1.1.259.767 1.684.687 2.153a3.7 3.7 0 00.225 2.645c.829 1.429 3.053 1.384 4.557.211a13.33 13.33 0 01-.8-.867z" fill="#fff"/></svg>