<svg xmlns="http://www.w3.org/2000/svg" viewBox="0 0 50 50"><g transform="translate(-466 -7396)"><circle cx="25" cy="25" r="25" transform="translate(466 7396)" fill="#fff"/><path d="M491 7429.142c-3.077 0-5.922-.069-7.612-.185-2-.137-3.053-.706-3.645-1.965-.603-1.276-.728-3.32-.743-6.42.015-3.1.141-5.149.742-6.427.592-1.255 1.647-1.823 3.643-1.96 1.689-.116 4.535-.185 7.615-.185s5.924.069 7.615.185c2 .137 3.054.706 3.646 1.965.6 1.276.726 3.321.742 6.422-.015 3.1-.142 5.149-.743 6.425-.592 1.255-1.647 1.823-3.644 1.96-1.695.116-4.542.185-7.616.185zm-3.428-12.586v8.03l8.428-4.022z" fill="#e1251e"/></g></svg>